<?xml version="1.0" encoding="UTF-8"?> <svg xmlns="http://www.w3.org/2000/svg" xmlns:xlink="http://www.w3.org/1999/xlink" id="Layer_1" data-name="Layer 1" viewBox="0 0 1920 1080"> <defs> <style>.cls-1,.cls-2,.cls-3{fill:none;}.cls-2,.cls-3{stroke:#111d41;stroke-linecap:round;stroke-linejoin:round;}.cls-3{stroke-dasharray:5 5;}.cls-4{fill:#fccd26;}.cls-34,.cls-35,.cls-5{fill:#50a0ff;}.cls-6{fill:#d8e557;}.cls-7{fill:#abbd43;}.cls-8{fill:#7a8419;}.cls-9{fill:#3a1c13;}.cls-10{clip-path:url(#clip-path);}.cls-11{fill:#ffbfab;}.cls-12{fill:#e78f75;}.cls-13{fill:#f3a992;}.cls-14{fill:#fb9891;}.cls-15{clip-path:url(#clip-path-2);}.cls-16{fill:#8c1d02;}.cls-17,.cls-25,.cls-30,.cls-31,.cls-32,.cls-33{fill:#fff;}.cls-18{fill:#d62b09;}.cls-19{fill:#111d41;}.cls-20{fill:#fca211;}.cls-21,.cls-22,.cls-36{fill:#005be0;}.cls-22{opacity:0.48;}.cls-23{fill:#c5ecff;}.cls-24{opacity:0.38;}.cls-25{opacity:0.31;}.cls-26{fill:#292f3d;}.cls-27{fill:#c1c1c1;}.cls-28,.cls-29,.cls-38{fill:#dcf6ff;}.cls-28,.cls-37{opacity:0.43;}.cls-29,.cls-33{opacity:0.17;}.cls-30{opacity:0.82;}.cls-31{opacity:0.42;}.cls-32{opacity:0.15;}.cls-34{opacity:0.33;}.cls-35,.cls-36{opacity:0.44;}</style> <clipPath id="clip-path"> <path class="cls-1" d="M915,472l2,43a53,53,0,0,0,40,18c26,0,36-19,36-19l-2-54Z"></path> </clipPath> <clipPath id="clip-path-2"> <path class="cls-1" d="M929,436l42,1s-5,24-22,23C935,459.18,929,436,929,436Z"></path> </clipPath> </defs> <path class="cls-2" d="M183,606a9.42,9.42,0,0,1,1.81-1.7"></path> <path class="cls-3" d="M188.77,601.23C216.86,580.28,340.54,500.86,403,558c77.22,70.65,60,180,61,207s2.57,167.37,118,184c114.5,16.5,169.43-137.87,196-173,43.5-57.5,193.5-186.5,331.5-117.5s145,191,144,238S1230.05,939,1242,905c19.5-55.5-107.16-199.4,176-185,29.5,1.5,263.5-29.5,277.5-295.5,14.39-273.44-321-443-559.7-302.57"></path> <path class="cls-2" d="M1133.64,123.21l-2.14,1.29"></path> <circle class="cls-4" cx="330.5" cy="215.5" r="41.5"></circle> <circle class="cls-4" cx="1181.5" cy="805.5" r="187.5"></circle> <circle class="cls-5" cx="1015.5" cy="827.5" r="70.5"></circle> <circle class="cls-6" cx="1401.5" cy="195.5" r="168.5"></circle> <path class="cls-7" d="M956,499s-65,7-121,41-91,299-91,299h448s-71.47-238.6-120-295C1035,501,956,499,956,499Z"></path> <path class="cls-8" d="M955.86,512.69S974.44,501.88,987,504s13,5,13,5-12,28-45.19,26C926.59,533.3,919,518,919,518s35.81,10.63,54.65,6.38S955.86,512.69,955.86,512.69Z"></path> <polygon class="cls-9" points="885.74 419.91 872.25 343.73 921.47 301.2 990.78 313.27 1018.95 339.39 1014.08 406.21 961.56 411.4 885.74 419.91"></polygon> <g class="cls-10"> <path class="cls-11" d="M915,472l2,43a53,53,0,0,0,40,18c26,0,36-19,36-19l-2-54Z"></path> <path class="cls-12" d="M910,488s28,24,49,25,44-9,44-9V455l-91,6Z"></path> </g> <path class="cls-13" d="M899.38,411s-9-10-23-10-14,23-13,31,17,17,25,14,14-19,14-19Z"></path> <path class="cls-12" d="M891.36,424.49s-8-11.49-14-12.49-9,8-9,8S874.33,410,891.36,424.49Z"></path> <path class="cls-12" d="M890,423.81,876.38,428S881.61,419.62,890,423.81Z"></path> <path class="cls-13" d="M1002,405s9-10,23-10,14,23,13,31-17,17-25,14-14-19-14-19Z"></path> <path class="cls-12" d="M1010,418.49s8-11.49,14-12.49,9,8,9,8S1027,404,1010,418.49Z"></path> <path class="cls-12" d="M1011.38,417.81,1025,422S1019.77,413.62,1011.38,417.81Z"></path> <path class="cls-11" d="M949,316s-27,2-43,14-19,40-19,40l9,98s35,31,60,27,53-30,53-30,2-85-1-101-9-30-20-37S949,316,949,316Z"></path> <ellipse class="cls-14" cx="912.5" cy="423.5" rx="12.5" ry="11.5"></ellipse> <ellipse class="cls-14" cx="990.5" cy="423.5" rx="12.5" ry="11.5"></ellipse> <polygon class="cls-13" points="943 426 951 412 959 426 943 426"></polygon> <g class="cls-15"> <path class="cls-16" d="M929,436l42,1s-5,24-22,23C935,459.18,929,436,929,436Z"></path> <path class="cls-17" d="M932,431l3,9s20,4,29,1,8-14,8-14Z"></path> <path class="cls-18" d="M935,455a17,17,0,0,1,16-8c11,1,15,14,15,14l-11,6-14-1Z"></path> </g> <ellipse class="cls-19" cx="925.5" cy="397" rx="3.5" ry="10"></ellipse> <ellipse class="cls-19" cx="974.5" cy="397" rx="3.5" ry="10"></ellipse> <path class="cls-9" d="M912,381s2-6,6-9,10-1,10-1S929,375,912,381Z"></path> <path class="cls-9" d="M987,379s-2-6-6-9-10-1-10-1S970,373,987,379Z"></path> <path class="cls-9" d="M962,306s-4-23,1-23,4,16,4,16l-4,9Z"></path> <path class="cls-9" d="M960.57,303.29s12-20,15.78-16.77-7.42,14.73-7.42,14.73l-8.9,4.2Z"></path> <path class="cls-9" d="M889.17,403.51S860,325,866,308s34-34,62-28,41.85,29.55,41.85,29.55S931,311,936,337c2.81,14.6,8,22,8,22s-27-12-28-29S890.34,361,889.17,403.51Z"></path> <path class="cls-9" d="M958.62,310S973,285.39,996,292.19s29,18.12,31,31.71-2,35.1-2,35.1-12-29.44-37-36.24S958.62,310,958.62,310Z"></path> <path class="cls-9" d="M937,313l.94.84c4.51,4,24.47,21.35,42,30.16,19.89,10,24.08,9,24.08,9l-11.52-24S968.41,306,937,313Z"></path> <path class="cls-19" d="M1109,538.72A20.28,20.28,0,0,0,1129.28,559h341.44A20.28,20.28,0,0,0,1491,538.72V218H1109Z"></path> <path class="cls-20" d="M1470.72,185H1129.28A20.28,20.28,0,0,0,1109,205.28V218h382V205.28A20.28,20.28,0,0,0,1470.72,185Z"></path> <path class="cls-21" d="M348,346.4a9.6,9.6,0,0,0,9.6,9.6H518.4a9.6,9.6,0,0,0,9.6-9.6V229H348Z"></path> <path class="cls-6" d="M518.4,210H357.6a9.6,9.6,0,0,0-9.6,9.6V229H528v-9.4A9.6,9.6,0,0,0,518.4,210Z"></path> <path class="cls-5" d="M1168,652.36a8.64,8.64,0,0,0,8.64,8.64h174.72a8.64,8.64,0,0,0,8.64-8.64V532H1168Z"></path> <path class="cls-21" d="M1351.36,507H1176.64a8.64,8.64,0,0,0-8.64,8.64V532h192V515.64A8.64,8.64,0,0,0,1351.36,507Z"></path> <rect class="cls-5" x="485" y="343" width="294" height="223" rx="12.96"></rect> <rect class="cls-22" x="500" y="367" width="264" height="186" rx="19.31"></rect> <path class="cls-23" d="M303,720a17.05,17.05,0,0,0,17.05,17H731a17.05,17.05,0,0,0,17-17V440H303Z"></path> <path class="cls-4" d="M731,400H320.05A17,17,0,0,0,303,417.05V440H748V417.05A17,17,0,0,0,731,400Z"></path> <g class="cls-24"> <rect class="cls-17" x="345" y="474" width="367" height="51" rx="8.99"></rect> </g> <rect class="cls-25" x="350" y="547" width="360" height="15" rx="7.5"></rect> <rect class="cls-25" x="350" y="581" width="360" height="15" rx="7.5"></rect> <rect class="cls-25" x="350" y="617" width="360" height="15" rx="7.5"></rect> <rect class="cls-23" x="1392" y="284" width="250" height="175" rx="8.12"></rect> <path class="cls-26" d="M1186.65,859H754a6.08,6.08,0,0,1-5.93-5L699.37,592.35a6.15,6.15,0,0,1,5.92-7.35H1217.2a6.13,6.13,0,0,1,6,6.93l-30.55,261.62A6.1,6.1,0,0,1,1186.65,859Z"></path> <path class="cls-27" d="M1186.65,859H754a6,6,0,0,1-5.93-4.9L699.37,599.16a6,6,0,0,1,5.92-7.16H1217.2a6,6,0,0,1,6,6.75l-30.55,254.94A6,6,0,0,1,1186.65,859Z"></path> <circle class="cls-17" cx="960.5" cy="711.5" r="34.5"></circle> <circle class="cls-17" cx="718" cy="420" r="9"></circle> <rect class="cls-28" x="365" y="247" width="40" height="30"></rect> <rect class="cls-28" x="417" y="247" width="46" height="30"></rect> <rect class="cls-28" x="474" y="247" width="38" height="30"></rect> <rect class="cls-29" x="365" y="286" width="145" height="7"></rect> <path class="cls-4" d="M1447.31,721.24v45H1428v-45H1388.1V703.73H1428V660.48h19.3v43.25H1487v17.51Z"></path> <path class="cls-5" d="M1548.37,98.18v41.26h-17.68V98.18H1494.1V82.12h36.59V42.48h17.68V82.12h36.38V98.18Z"></path> <path class="cls-6" d="M464.89,748.89V784H449.84V748.89H418.7V735.23h31.14V701.49h15.05v33.74h31v13.66Z"></path> <circle class="cls-5" cx="184.5" cy="609.5" r="25.5"></circle> <path class="cls-4" d="M1094.25,153.41l54.33-6.92a2.34,2.34,0,0,0,1.57-3.74L1117,99.15a2.34,2.34,0,0,0-4,.51l-21.18,50.52A2.34,2.34,0,0,0,1094.25,153.41Z"></path> <circle class="cls-17" cx="1425.5" cy="202.5" r="6.5"></circle> <circle class="cls-17" cx="1447.5" cy="202.5" r="6.5"></circle> <circle class="cls-17" cx="1469.5" cy="202.5" r="6.5"></circle> <circle class="cls-30" cx="1458.5" cy="370.5" r="14.5"></circle> <circle class="cls-30" cx="1515.5" cy="370.5" r="14.5"></circle> <circle class="cls-30" cx="1572.5" cy="370.5" r="14.5"></circle> <rect class="cls-31" x="1310" y="516" width="42" height="8" rx="4"></rect> <rect class="cls-32" x="1178" y="540" width="172" height="13"></rect> <rect class="cls-32" x="1178" y="561" width="172" height="13"></rect> <rect class="cls-33" x="1305" y="583" width="44" height="62"></rect> <rect class="cls-33" x="1250" y="583" width="44" height="62"></rect> <rect class="cls-34" x="1125.5" y="235.5" width="219" height="16"></rect> <rect class="cls-4" x="1352" y="235" width="54" height="17"></rect> <rect class="cls-34" x="1126" y="260" width="54" height="17"></rect> <rect class="cls-4" x="1188" y="260" width="93" height="17"></rect> <rect class="cls-34" x="1127" y="285" width="118" height="17"></rect> <rect class="cls-34" x="1252" y="285" width="109" height="17"></rect> <rect class="cls-4" x="1127" y="329" width="17" height="17"></rect> <rect class="cls-35" x="1152" y="329" width="70" height="17"></rect> <rect class="cls-35" x="1230" y="329" width="70" height="17"></rect> <rect class="cls-34" x="1288" y="260" width="25" height="17"></rect> <rect class="cls-35" x="1126" y="355" width="42.74" height="17"></rect> <rect class="cls-36" x="1175.07" y="355" width="73.61" height="17"></rect> <rect class="cls-35" x="1126.79" y="397" width="93.4" height="17"></rect> <rect class="cls-35" x="1225.73" y="397" width="86.27" height="17"></rect> <rect class="cls-36" x="1126.79" y="423" width="13.46" height="17"></rect> <rect class="cls-35" x="1146.58" y="423" width="55.4" height="17"></rect> <rect class="cls-35" x="1208.31" y="423" width="55.4" height="17"></rect> <rect class="cls-35" x="1254.22" y="355" width="19.79" height="17"></rect> <path class="cls-6" d="M483.63,798.53v-5.12l25.1-11.26v5.29l-20,8.56,20,8.44v5.29Z"></path> <path class="cls-6" d="M521.06,811.3v13.85h-7.15V787.61h7.15V791a10.49,10.49,0,0,1,8.38-4.1c7,0,12,5.17,12,14.23s-5.06,14.3-12,14.3A10.36,10.36,0,0,1,521.06,811.3Zm13-10.13c0-4.67-2.76-7.88-6.87-7.88a8,8,0,0,0-6.13,3.1V806a8.17,8.17,0,0,0,6.13,3.1C531.3,809.11,534.06,805.9,534.06,801.17Z"></path> <path class="cls-6" d="M546.83,819a6.22,6.22,0,0,0,2.25.45c1.86,0,3.1-.5,3.77-2l1-2.31-11-27.57h7.65l7.09,18.91,7.09-18.91h7.71l-12.77,31.63c-2,5.12-5.63,6.47-10.3,6.58a20,20,0,0,1-3.55-.39Z"></path> <path class="cls-6" d="M577,808V793.86h-4.5v-6.25H577v-7.43h7.2v7.43h5.52v6.25H584.2v12.27c0,1.68.9,3,2.48,3a3.9,3.9,0,0,0,2.47-.79l1.52,5.4c-1.07,1-3,1.75-6,1.75C579.7,815.47,577,812.88,577,808Z"></path> <path class="cls-6" d="M613,814.79V798.25c0-3.77-2-5-5.07-5a7.92,7.92,0,0,0-6.19,3.21v18.29h-7.15V777.26h7.15v13.9a12.56,12.56,0,0,1,9.57-4.22c6,0,8.83,3.26,8.83,8.55v19.3Z"></path> <path class="cls-6" d="M625.51,801.17c0-7.71,5.4-14.23,14.35-14.23s14.41,6.52,14.41,14.23-5.4,14.3-14.41,14.3S625.51,808.94,625.51,801.17Zm21.33,0c0-4.22-2.53-7.88-7-7.88s-6.92,3.66-6.92,7.88,2.48,7.94,6.92,7.94S646.84,805.45,646.84,801.17Z"></path> <path class="cls-6" d="M677.91,814.79V798.36c0-3.77-2-5.07-5-5.07a7.74,7.74,0,0,0-6.19,3.21v18.29h-7.15V787.61h7.15v3.55a12.4,12.4,0,0,1,9.51-4.22c6,0,8.83,3.37,8.83,8.66v19.19Z"></path> <path class="cls-6" d="M690.23,809.73v-5.29l20-8.44-20-8.56v-5.29l25.1,11.26v5.12Z"></path> <path class="cls-4" d="M1527.13,511v-5.12l25.1-11.26v5.29l-20,8.56,20,8.44v5.29Z"></path> <path class="cls-4" d="M1556.68,492.91a4.28,4.28,0,1,1,4.28,4.27A4.31,4.31,0,0,1,1556.68,492.91Zm.73,34.38V500.11h7.15v27.18Z"></path> <path class="cls-4" d="M1573.22,527.29V506.36h-4.5v-6.25h4.5v-1.46c0-5.8,3.72-9.46,9.18-9.46,2.58,0,5.34.68,7.09,2.54l-2.7,4.22a4,4,0,0,0-3-1.13c-2,0-3.37,1.3-3.37,3.83v1.46h5.51v6.25h-5.51v20.93Z"></path> <path class="cls-4" d="M1588.14,522.23v-5.29l20-8.44-20-8.56v-5.29l25.1,11.26V511Z"></path> <g class="cls-37"> <path class="cls-38" d="M366.91,323.5v-3.86l21.77-8.5v4l-17.33,6.46L388.68,328v4Z"></path> <path class="cls-38" d="M394.39,330.68V320h-3.9v-4.72h3.9v-5.6h6.25v5.6h4.78V320h-4.78v9.25a2.07,2.07,0,0,0,2.14,2.25,3.71,3.71,0,0,0,2.15-.59l1.32,4.08a8.47,8.47,0,0,1-5.17,1.31C396.73,336.28,394.39,334.33,394.39,330.68Z"></path> <path class="cls-38" d="M409.67,335.77V315.26h6.19v2.8a10.73,10.73,0,0,1,7.52-3.31V320a9,9,0,0,0-1.71-.13c-2.05,0-4.78,1-5.81,2.34v13.54Z"></path> <path class="cls-38" d="M443.14,335.77v-2.59a11.82,11.82,0,0,1-8.29,3.1c-5.18,0-7.62-2.46-7.62-6.45V315.26h6.2V327.7c0,2.85,1.71,3.78,4.34,3.78a7.29,7.29,0,0,0,5.37-2.33V315.26h6.2v20.51Z"></path> <path class="cls-38" d="M454,325.5c0-5.95,5-10.75,12.2-10.75,7,0,11.81,4.59,11.81,11.3v1.19H460.47c.39,2.59,2.78,4.75,6.78,4.75a10.9,10.9,0,0,0,6.29-2l2.74,3.49c-2.34,1.87-6,2.84-9.71,2.84C459.39,336.28,454,332.08,454,325.5Zm12.2-6.46c-3.86,0-5.52,2.51-5.81,4.54H472C471.84,321.63,470.28,319,466.18,319Z"></path> <path class="cls-38" d="M480.82,332v-4l17.32-6.37-17.32-6.46v-4l21.76,8.5v3.86Z"></path> </g> </svg> 